<svg width="27" height="26" viewBox="0 0 27 26" fill="none" xmlns="http://www.w3.org/2000/svg">
<path d="M27 14.808C26.9317 15.0537 26.8774 15.3036 26.7936 15.5438C26.3104 16.9316 25.0072 17.8871 23.5053 17.9509C23.1017 17.9681 22.6973 17.9612 22.293 17.9571C21.7407 17.9523 21.4152 17.6297 21.4145 17.0861C21.4124 14.9027 21.4145 12.7193 21.4131 10.5366C21.4131 9.60454 21.4469 8.67106 21.2476 7.74856C20.5509 4.53081 17.7797 2.06876 14.4251 1.69881C10.4683 1.26158 6.84614 3.66185 5.85288 7.41979C5.67748 8.08283 5.60774 8.78774 5.59929 9.47481C5.5697 11.9746 5.58802 14.4744 5.58731 16.9749C5.58731 17.6215 5.38937 17.896 4.7427 17.9612C3.19858 18.117 1.79605 17.8329 0.772505 16.5672C0.261085 15.9343 0.0103067 15.2054 0.00396684 14.401C-0.00166864 13.6645 -0.000964204 12.9287 0.00396684 12.1922C0.0152378 10.2264 1.59528 8.65733 3.61701 8.60242C3.71281 8.59968 3.80791 8.60242 3.9178 8.60242C4.23128 5.71207 5.55773 3.39622 7.97253 1.71185C9.78504 0.446161 11.8314 -0.098139 14.056 0.0144274C18.9941 0.264956 22.8347 4.21233 23.0862 8.57497C23.3863 8.60448 23.6927 8.61203 23.99 8.66831C25.5538 8.96483 26.6936 10.1125 26.9521 11.6328C26.9606 11.6822 26.9831 11.7289 26.9993 11.7769V14.808H27Z" fill="#CE1126"/>
<path d="M13.496 25.9975C13.1736 25.9975 12.8519 26.0031 12.5295 25.9962C11.678 25.9782 11.0178 25.3406 11.0003 24.5273C10.9835 23.7302 11.6425 23.0453 12.4894 23.0172C13.1652 22.9948 13.8429 22.9935 14.5187 23.0178C15.365 23.0484 16.0227 23.7408 15.9994 24.5354C15.9755 25.3518 15.3172 25.98 14.4618 25.9969C14.1401 26.0031 13.8177 25.9981 13.4953 25.9981L13.496 25.9975Z" fill="#CE1126"/>
<path d="M3 20.0007H4.01036C4.89462 22.7947 6.91139 24.1067 10 24.0195V24.9623C6.3274 25.3439 3.37514 22.7676 3 20V20.0007Z" fill="#CE1126"/>
</svg>
