<svg width="28" height="28" viewBox="0 0 28 28" fill="none" xmlns="http://www.w3.org/2000/svg">
<path d="M13.6188 0H14.3844C15.2141 0.162736 15.7862 0.707383 16.3572 1.28107C19.9133 4.85141 23.4804 8.41079 27.0436 11.974C27.1598 12.0902 27.2776 12.2047 27.3834 12.3296C28.663 13.8359 27.8454 16.1608 25.9037 16.5235C25.6133 16.5778 25.313 16.5761 24.9984 16.6013C24.9984 16.7219 24.9984 16.8298 24.9984 16.9377C24.9984 19.5799 25.0006 22.2226 24.9973 24.8647C24.9951 26.7003 23.699 27.9956 21.8665 27.9989C20.4723 28.0011 19.0776 27.9994 17.6835 27.9989C16.9951 27.9989 16.6899 27.6904 16.6899 26.9934C16.6899 24.8976 16.691 22.8023 16.6888 20.7064C16.6877 19.7733 16.1254 19.2122 15.19 19.2089C14.4156 19.2062 13.6402 19.2298 12.8664 19.2029C11.9172 19.1695 11.2853 19.8473 11.299 20.7579C11.3314 22.8439 11.31 24.931 11.3089 27.0175C11.3089 27.6888 10.9943 27.9989 10.3181 27.9989C8.94201 27.9989 7.56594 27.9994 6.18987 27.9989C4.28276 27.9978 3.00259 26.7195 3.0015 24.8121C3.0004 22.1787 3.0015 19.5454 3.0015 16.9125C3.0015 16.8068 3.0015 16.701 3.0015 16.6084C2.94724 16.5898 2.9308 16.5794 2.91381 16.5788C2.77736 16.5756 2.64035 16.5788 2.5039 16.5717C1.50212 16.5197 0.755717 16.0506 0.285517 15.1685C0.156733 14.9252 0.0937111 14.6457 0 14.3827V13.6173C0.164953 12.8003 0.692695 12.2277 1.26154 11.6611C4.73104 8.2097 8.19178 4.74949 11.6437 1.28107C12.2159 0.706287 12.7907 0.166024 13.6188 0V0Z" fill="#CE1126"/>
</svg>
