<svg width="26" height="26" viewBox="0 0 26 26" fill="none" xmlns="http://www.w3.org/2000/svg">
<path d="M0 13.7625C0 13.2548 0 12.7468 0 12.2391C0.0148026 12.166 0.0383125 12.0933 0.0433628 12.0195C0.169968 10.2054 0.639993 8.48084 1.53006 6.89894C3.92494 2.64182 7.5756 0.318611 12.455 0.0235505C15.0267 -0.131992 17.455 0.483907 19.6475 1.84251C23.5779 4.27806 25.7075 7.83202 25.9781 12.4523C26.1154 14.7976 25.606 17.0334 24.4721 19.095C22.4556 22.7611 19.3799 25.0028 15.264 25.7945C14.7681 25.8899 14.2622 25.9328 13.7608 26H12.2375C12.1722 25.9855 12.1076 25.9626 12.0416 25.958C10.2192 25.8347 8.49301 25.354 6.89729 24.4719C3.23741 22.449 0.995428 19.3777 0.20532 15.2636C0.110061 14.7684 0.067221 14.2631 0 13.7625ZM9.09329 12.1142C9.27075 12.0597 9.41373 12.0191 9.55444 11.9719C9.97152 11.8321 10.3947 11.7903 10.8287 11.8791C11.2012 11.9554 11.4011 12.1179 11.4204 12.4993C11.4406 12.8991 11.4307 13.3154 11.3408 13.7027C11.1348 14.5905 10.8778 15.4667 10.6307 16.3445C10.4083 17.1343 10.184 17.9221 10.1575 18.7501C10.129 19.6456 10.5842 20.3702 11.4032 20.7135C12.0806 20.9974 12.7985 21.0489 13.4942 20.8842C14.2131 20.714 14.9036 20.424 15.6054 20.1829C15.6482 20.1683 15.7032 20.1284 15.7135 20.0897C15.7856 19.8198 15.8473 19.547 15.91 19.2852C15.5143 19.3686 15.1557 19.4742 14.79 19.5155C13.8129 19.6261 13.3644 19.1722 13.5417 18.2116C13.6856 17.4326 13.8992 16.6661 14.092 15.8967C14.3581 14.834 14.7738 13.8066 14.8116 12.6911C14.8376 11.9202 14.6119 11.2735 13.9489 10.8319C13.3002 10.4 12.5681 10.3519 11.8257 10.435C10.9859 10.529 10.2139 10.8661 9.43515 11.1693C9.37559 11.1925 9.30889 11.2587 9.29147 11.3184C9.2192 11.5671 9.16469 11.8209 9.09347 12.1144L9.09329 12.1142ZM14.142 4.9821C13.9118 5.02912 13.6744 5.05473 13.4524 5.12701C12.2959 5.50289 11.7931 6.85418 12.4634 7.83551C12.9538 8.55347 13.6729 8.79767 14.5218 8.68498C15.5228 8.55208 16.2494 7.5974 16.112 6.59918C15.9871 5.6924 15.1324 4.99899 14.1422 4.98227L14.142 4.9821Z" fill="#CE1126"/>
</svg>
