<svg width="22" height="25" viewBox="0 0 22 25" fill="none" xmlns="http://www.w3.org/2000/svg">
<path d="M10.6942 22.3209C7.93446 22.3209 5.17476 22.3224 2.41578 22.3202C1.21579 22.3195 0.29424 21.5793 0.0539593 20.4136C-0.0838487 19.7454 0.0447721 19.1229 0.411553 18.5525C0.964906 17.691 1.50978 16.8244 2.06808 15.9674C2.19175 15.777 2.2497 15.5896 2.24899 15.3581C2.24193 13.1934 2.24122 11.0295 2.24546 8.86487C2.25323 5.16623 4.33661 1.97844 7.63552 0.609089C12.2298 -1.2983 17.5358 1.44849 18.8552 6.41651C19.0722 7.23459 19.1782 8.06664 19.1768 8.91485C19.1739 11.0795 19.1725 13.2434 19.1824 15.4081C19.1831 15.5771 19.2425 15.7682 19.3315 15.9101C19.8927 16.809 20.4806 17.691 21.0404 18.5914C21.9259 20.0144 21.2262 21.8542 19.6545 22.246C19.4262 22.3026 19.1831 22.3173 18.9471 22.318C16.1966 22.3224 13.4454 22.3209 10.6949 22.3209H10.6942Z" fill="#CE1126"/>
<path d="M13.3929 23.2143C13.0903 24.1772 11.7486 24.9598 10.3363 24.9987C8.95272 25.0364 7.58379 24.2776 7.14285 23.2143H13.3922H13.3929Z" fill="#CE1126"/>
</svg>
